HIERARCHY
ROOT newVegas:Hips
{
	OFFSET 0.000000 96.479958 0.000000
	CHANNELS 6 Xposition Yposition Zposition Xrotation Yrotation Zrotation
	JOINT newVegas:Pelvis
	{
		OFFSET 0.000000 0.000000 0.000000
		CHANNELS 3 Xrotation Yrotation Zrotation
		JOINT newVegas:LeftUpLeg
		{
			OFFSET 18.735201 -5.666702 -4.541200
			CHANNELS 3 Xrotation Yrotation Zrotation
			JOINT newVegas:LeftLeg
			{
				OFFSET -0.021200 -31.938179 0.493100
				CHANNELS 3 Xrotation Yrotation Zrotation
				JOINT newVegas:LeftFoot
				{
					OFFSET 0.021200 -31.938179 -4.336299
					CHANNELS 3 Xrotation Yrotation Zrotation
					JOINT newVegas:LeftToeBase
					{
						OFFSET 0.943001 -26.722000 15.023500
						CHANNELS 3 Xrotation Yrotation Zrotation
						End Site
						{
							OFFSET 0.000000 30.670183 0.000000
						}
					}
				}
				JOINT newVegas:Left_PantLeg
				{
					OFFSET 0.663870 -9.044666 -1.108900
					CHANNELS 3 Xrotation Yrotation Zrotation
					End Site
					{
						OFFSET 1.415995 20.635357 0.000000
					}
				}
			}
		}
		JOINT newVegas:RightUpLeg
		{
			OFFSET -18.735201 -5.666702 -4.541200
			CHANNELS 3 Xrotation Yrotation Zrotation
			JOINT newVegas:RightLeg
			{
				OFFSET 0.018946 -31.938133 0.493100
				CHANNELS 3 Xrotation Yrotation Zrotation
				JOINT newVegas:RightFoot
				{
					OFFSET -0.018946 -31.938126 -4.336299
					CHANNELS 3 Xrotation Yrotation Zrotation
					JOINT newVegas:RightToeBase
					{
						OFFSET -0.943001 -26.722004 15.023500
						CHANNELS 3 Xrotation Yrotation Zrotation
						End Site
						{
							OFFSET 0.000000 30.670187 0.000000
						}
					}
				}
				JOINT newVegas:Right_PantLeg
				{
					OFFSET -0.661674 -9.044716 -1.108900
					CHANNELS 3 Xrotation Yrotation Zrotation
					End Site
					{
						OFFSET -1.415958 20.635269 0.000000
					}
				}
			}
		}
	}
	JOINT newVegas:Spine
	{
		OFFSET 0.000000 10.199997 -0.299500
		CHANNELS 3 Xrotation Yrotation Zrotation
		JOINT newVegas:Spine1
		{
			OFFSET 0.000000 11.900002 -1.516600
			CHANNELS 3 Xrotation Yrotation Zrotation
			JOINT newVegas:Spine2
			{
				OFFSET 0.000000 13.600006 -2.842500
				CHANNELS 3 Xrotation Yrotation Zrotation
				JOINT newVegas:Neck
				{
					OFFSET 0.000000 9.624100 -2.890100
					CHANNELS 3 Xrotation Yrotation Zrotation
					JOINT newVegas:Head
					{
						OFFSET 0.000000 14.068802 -1.351900
						CHANNELS 3 Xrotation Yrotation Zrotation
						JOINT newVegas:Hair_Back
						{
							OFFSET 0.000000 3.231903 -17.524799
							CHANNELS 3 Xrotation Yrotation Zrotation
							End Site
							{
								OFFSET 0.000000 19.849884 0.000000
							}
						}
						JOINT newVegas:Hair_Front
						{
							OFFSET 0.000000 31.260406 4.573800
							CHANNELS 3 Xrotation Yrotation Zrotation
							JOINT newVegas:Hair_Front1
							{
								OFFSET 0.000000 2.284103 11.993300
								CHANNELS 3 Xrotation Yrotation Zrotation
								JOINT newVegas:Hair_Front2
								{
									OFFSET 0.000000 2.284103 11.993300
									CHANNELS 3 Xrotation Yrotation Zrotation
									End Site
									{
										OFFSET 0.000000 12.208862 0.000000
									}
								}
							}
						}
						JOINT newVegas:Jowel
						{
							OFFSET 0.000000 -7.458206 6.864100
							CHANNELS 3 Xrotation Yrotation Zrotation
							End Site
							{
								OFFSET 0.000000 19.849884 0.000000
							}
						}
					}
				}
				JOINT newVegas:LeftShoulder
				{
					OFFSET 15.263000 10.923401 -0.547700
					CHANNELS 3 Xrotation Yrotation Zrotation
					JOINT newVegas:LeftArm
					{
						OFFSET 25.438599 -2.830597 -13.032500
						CHANNELS 3 Xrotation Yrotation Zrotation
						JOINT newVegas:LeftForeArm
						{
							OFFSET 29.960503 0.000000 0.000000
							CHANNELS 3 Xrotation Yrotation Zrotation
							JOINT newVegas:LeftHand
							{
								OFFSET 27.849251 0.000000 0.000000
								CHANNELS 3 Xrotation Yrotation Zrotation
								JOINT newVegas:LeftHandThumb1
								{
									OFFSET 4.487587 -3.305161 6.305391
									CHANNELS 3 Xrotation Yrotation Zrotation
									JOINT newVegas:LeftHandThumb2
									{
										OFFSET 5.480453 -3.164139 3.164143
										CHANNELS 3 Xrotation Yrotation Zrotation
										JOINT newVegas:LeftHandThumb3
										{
											OFFSET 5.159721 -2.978973 2.978967
											CHANNELS 3 Xrotation Yrotation Zrotation
											End Site
											{
												OFFSET 2.494507 5.926697 1.738678
											}
										}
									}
								}
								JOINT newVegas:LeftHandIndex1
								{
									OFFSET 18.578728 -0.527832 5.208049
									CHANNELS 3 Xrotation Yrotation Zrotation
									JOINT newVegas:LeftHandIndex2
									{
										OFFSET 3.192009 0.000000 0.000000
										CHANNELS 3 Xrotation Yrotation Zrotation
										JOINT newVegas:LeftHandIndex3
										{
											OFFSET 3.835129 0.000000 0.000000
											CHANNELS 3 Xrotation Yrotation Zrotation
											End Site
											{
												OFFSET -0.034599 3.816971 0.371180
											}
										}
									}
								}
								JOINT newVegas:LeftHandMiddle1
								{
									OFFSET 18.476105 0.000000 0.000000
									CHANNELS 3 Xrotation Yrotation Zrotation
									JOINT newVegas:LeftHandMiddle2
									{
										OFFSET 3.324875 0.000000 0.000000
										CHANNELS 3 Xrotation Yrotation Zrotation
										JOINT newVegas:LeftHandMiddle3
										{
											OFFSET 4.596550 0.000000 0.000000
											CHANNELS 3 Xrotation Yrotation Zrotation
											End Site
											{
												OFFSET 0.057701 4.578827 0.399218
											}
										}
									}
								}
								JOINT newVegas:LeftHandRing1
								{
									OFFSET 17.732719 0.121887 -4.201567
									CHANNELS 3 Xrotation Yrotation Zrotation
									JOINT newVegas:LeftHandRing2
									{
										OFFSET 2.733170 0.000000 0.000000
										CHANNELS 3 Xrotation Yrotation Zrotation
										JOINT newVegas:LeftHandRing3
										{
											OFFSET 3.178268 0.000000 0.000000
											CHANNELS 3 Xrotation Yrotation Zrotation
											End Site
											{
												OFFSET 0.119102 3.170624 0.185394
											}
										}
									}
								}
								JOINT newVegas:LeftHandPinky1
								{
									OFFSET 15.989624 -0.606689 -7.535461
									CHANNELS 3 Xrotation Yrotation Zrotation
									JOINT newVegas:LeftHandPinky2
									{
										OFFSET 2.538986 0.000000 0.000000
										CHANNELS 3 Xrotation Yrotation Zrotation
										JOINT newVegas:LeftHandPinky3
										{
											OFFSET 2.593102 0.000000 0.000000
											CHANNELS 3 Xrotation Yrotation Zrotation
											End Site
											{
												OFFSET -0.150902 2.584198 0.152708
											}
										}
									}
								}
							}
							JOINT newVegas:Left_Sleeve
							{
								OFFSET 0.267448 -0.649796 0.577675
								CHANNELS 3 Xrotation Yrotation Zrotation
								End Site
								{
									OFFSET 0.000000 15.991241 0.000000
								}
							}
							JOINT newVegas:Left_CapeC
							{
								OFFSET 15.715958 -8.608795 -6.935905
								CHANNELS 3 Xrotation Yrotation Zrotation
								JOINT newVegas:Left_CapeC1
								{
									OFFSET 0.000000 -8.688499 0.000000
									CHANNELS 3 Xrotation Yrotation Zrotation
									End Site
									{
										OFFSET 0.000000 8.688499 0.000000
									}
								}
							}
						}
						JOINT newVegas:Left_CapeB
						{
							OFFSET 26.118385 -8.608795 -7.079235
							CHANNELS 3 Xrotation Yrotation Zrotation
							JOINT newVegas:Left_CapeB1
							{
								OFFSET 0.000000 -8.688499 0.000000
								CHANNELS 3 Xrotation Yrotation Zrotation
								End Site
								{
									OFFSET 0.000000 8.688499 0.000000
								}
							}
						}
						JOINT newVegas:Left_CapeA
						{
							OFFSET 5.115639 -8.608795 -10.395809
							CHANNELS 3 Xrotation Yrotation Zrotation
							JOINT newVegas:Left_CapeA1
							{
								OFFSET 0.000000 -8.688499 0.000000
								CHANNELS 3 Xrotation Yrotation Zrotation
								End Site
								{
									OFFSET 0.000000 8.688499 0.000000
								}
							}
						}
					}
				}
				JOINT newVegas:RightShoulder
				{
					OFFSET -15.263000 10.923401 -0.547700
					CHANNELS 3 Xrotation Yrotation Zrotation
					JOINT newVegas:RightArm
					{
						OFFSET -25.438599 -2.830597 -13.032500
						CHANNELS 3 Xrotation Yrotation Zrotation
						JOINT newVegas:RightForeArm
						{
							OFFSET -29.960503 0.000000 0.000000
							CHANNELS 3 Xrotation Yrotation Zrotation
							JOINT newVegas:RightHand
							{
								OFFSET -27.849251 0.000000 0.000000
								CHANNELS 3 Xrotation Yrotation Zrotation
								JOINT newVegas:RightHandThumb1
								{
									OFFSET -4.487587 -3.305161 6.305391
									CHANNELS 3 Xrotation Yrotation Zrotation
									JOINT newVegas:RightHandThumb2
									{
										OFFSET -5.480453 -3.164139 3.164143
										CHANNELS 3 Xrotation Yrotation Zrotation
										JOINT newVegas:RightHandThumb3
										{
											OFFSET -5.159721 -2.978973 2.978967
											CHANNELS 3 Xrotation Yrotation Zrotation
											End Site
											{
												OFFSET -2.494507 5.926697 1.738678
											}
										}
									}
								}
								JOINT newVegas:RightHandIndex1
								{
									OFFSET -18.578728 -0.527832 5.208049
									CHANNELS 3 Xrotation Yrotation Zrotation
									JOINT newVegas:RightHandIndex2
									{
										OFFSET -3.192009 0.000000 0.000000
										CHANNELS 3 Xrotation Yrotation Zrotation
										JOINT newVegas:RightHandIndex3
										{
											OFFSET -3.835129 0.000000 0.000000
											CHANNELS 3 Xrotation Yrotation Zrotation
											End Site
											{
												OFFSET 0.034599 3.816971 0.371180
											}
										}
									}
								}
								JOINT newVegas:RightHandMiddle1
								{
									OFFSET -18.476105 0.000000 0.000000
									CHANNELS 3 Xrotation Yrotation Zrotation
									JOINT newVegas:RightHandMiddle2
									{
										OFFSET -3.324875 0.000000 0.000000
										CHANNELS 3 Xrotation Yrotation Zrotation
										JOINT newVegas:RightHandMiddle3
										{
											OFFSET -4.596550 0.000000 0.000000
											CHANNELS 3 Xrotation Yrotation Zrotation
											End Site
											{
												OFFSET -0.057701 4.578827 0.399218
											}
										}
									}
								}
								JOINT newVegas:RightHandRing1
								{
									OFFSET -17.732719 0.121887 -4.201567
									CHANNELS 3 Xrotation Yrotation Zrotation
									JOINT newVegas:RightHandRing2
									{
										OFFSET -2.733170 0.000000 0.000000
										CHANNELS 3 Xrotation Yrotation Zrotation
										JOINT newVegas:RightHandRing3
										{
											OFFSET -3.178268 0.000000 0.000000
											CHANNELS 3 Xrotation Yrotation Zrotation
											End Site
											{
												OFFSET -0.119102 3.170624 0.185394
											}
										}
									}
								}
								JOINT newVegas:RightHandPinky1
								{
									OFFSET -15.989624 -0.606689 -7.535461
									CHANNELS 3 Xrotation Yrotation Zrotation
									JOINT newVegas:RightHandPinky2
									{
										OFFSET -2.538986 0.000000 0.000000
										CHANNELS 3 Xrotation Yrotation Zrotation
										JOINT newVegas:RightHandPinky3
										{
											OFFSET -2.593102 0.000000 0.000000
											CHANNELS 3 Xrotation Yrotation Zrotation
											End Site
											{
												OFFSET 0.150902 2.584198 0.152708
											}
										}
									}
								}
							}
							JOINT newVegas:Right_CapeC
							{
								OFFSET -15.715958 -8.608795 -6.935905
								CHANNELS 3 Xrotation Yrotation Zrotation
								JOINT newVegas:Right_CapeC1
								{
									OFFSET 0.000000 -8.688499 0.000000
									CHANNELS 3 Xrotation Yrotation Zrotation
									End Site
									{
										OFFSET 0.000000 8.688499 0.000000
									}
								}
							}
							JOINT newVegas:Right_Sleeve
							{
								OFFSET -0.267448 -0.649994 0.577675
								CHANNELS 3 Xrotation Yrotation Zrotation
								End Site
								{
									OFFSET 0.000000 15.991302 0.000000
								}
							}
						}
						JOINT newVegas:Right_CapeA
						{
							OFFSET -5.115540 -8.608795 -10.395824
							CHANNELS 3 Xrotation Yrotation Zrotation
							JOINT newVegas:Right_CapeA1
							{
								OFFSET 0.000000 -8.688499 0.000000
								CHANNELS 3 Xrotation Yrotation Zrotation
								End Site
								{
									OFFSET 0.000000 8.688499 0.000000
								}
							}
						}
						JOINT newVegas:Right_CapeB
						{
							OFFSET -26.118187 -8.608795 -7.079266
							CHANNELS 3 Xrotation Yrotation Zrotation
							JOINT newVegas:Right_CapeB1
							{
								OFFSET 0.000000 -8.688499 0.000000
								CHANNELS 3 Xrotation Yrotation Zrotation
								End Site
								{
									OFFSET 0.000000 8.688499 0.000000
								}
							}
						}
					}
				}
				JOINT newVegas:Left_Collar
				{
					OFFSET 18.625099 8.655502 8.828100
					CHANNELS 3 Xrotation Yrotation Zrotation
					JOINT newVegas:Left_Collar1
					{
						OFFSET 14.783401 10.540405 -1.259500
						CHANNELS 3 Xrotation Yrotation Zrotation
						End Site
						{
							OFFSET 0.000000 18.199875 0.000000
						}
					}
				}
				JOINT newVegas:Collar_Back
				{
					OFFSET 0.000000 15.630707 -20.132601
					CHANNELS 3 Xrotation Yrotation Zrotation
					End Site
					{
						OFFSET 0.000000 22.523010 0.000000
					}
				}
				JOINT newVegas:Left_Peck
				{
					OFFSET 17.239599 -5.132599 25.482599
					CHANNELS 3 Xrotation Yrotation Zrotation
					End Site
					{
						OFFSET 0.000000 22.523010 0.000000
					}
				}
				JOINT newVegas:Right_Peck
				{
					OFFSET -17.239599 -5.132202 25.482599
					CHANNELS 3 Xrotation Yrotation Zrotation
					End Site
					{
						OFFSET 0.000000 22.523010 0.000000
					}
				}
				JOINT newVegas:Right_Collar
				{
					OFFSET -18.625099 8.655792 8.828100
					CHANNELS 3 Xrotation Yrotation Zrotation
					JOINT newVegas:Right_Collar1
					{
						OFFSET -14.783401 10.539993 -1.259500
						CHANNELS 3 Xrotation Yrotation Zrotation
						End Site
						{
							OFFSET 0.000000 18.199631 0.000000
						}
					}
				}
			}
		}
		JOINT newVegas:Belly
		{
			OFFSET 0.000000 -6.540398 9.014299
			CHANNELS 3 Xrotation Yrotation Zrotation
			End Site
			{
				OFFSET 0.000000 11.566666 0.000000
			}
		}
	}
	JOINT newVegas:ElvisFacialAnim_Joint
	{
		OFFSET 1.000000 -95.330101 -8.825800
		CHANNELS 3 Xrotation Yrotation Zrotation
		End Site
		{
			OFFSET 0.000000 35.315800 0.000000
		}
	}
}
MOTION
Frames: 4
Frame Time: 0.016667
-1.051281 73.665298 -46.754944 16.430847 -76.698612 15.268271 0.000000 0.000001 -0.000000 -43.536053 -10.282314 28.959196 79.569177 10.741284 0.598362 -23.340882 8.357265 -33.925136 -0.000000 0.000001 -0.000000 -0.000003 -0.000001 -0.000004 -56.829933 1.907461 -17.859635 86.150993 21.439436 -5.061783 -33.210770 -2.164641 5.496568 0.000000 0.000000 -0.000000 0.000003 0.000000 -0.000001 4.443795 9.377074 -3.033990 9.594760 18.344802 -7.012218 9.594760 18.344790 -7.012212 0.550278 0.503879 0.193042 0.550280 0.503869 0.193046 -0.000000 -0.000000 -0.000001 0.550274 0.503884 0.193041 0.550358 0.503862 0.193049 0.000002 -0.000000 0.000000 -0.000000 -0.000000 -0.000000 4.442670 -4.896766 0.391714 -74.044845 -32.200879 -59.779557 45.629970 -71.166405 44.297366 30.811571 -13.945414 5.324274 -19.313922 7.326451 -0.325103 17.757216 27.151359 -7.102077 -0.000000 0.000001 -0.000006 8.737630 0.556799 -27.858989 -3.246445 1.052134 -21.338361 0.000000 -0.000001 0.000002 -3.793141 6.626411 -20.382886 -1.406091 -1.003764 -21.514840 -0.000000 -0.000000 0.000001 -8.139605 9.456986 -29.778935 1.966546 -4.844284 -27.350972 -0.000001 0.000001 -0.000003 -7.314751 11.108294 -42.805823 1.162396 -7.791618 -40.565211 0.000000 -0.000004 0.000006 0.000000 -0.000002 -0.000000 0.000000 -0.000002 -0.000000 -0.000001 -0.000001 0.000000 0.000003 -0.000002 0.000002 0.000003 -0.000001 0.000002 0.000003 -0.000002 0.000002 0.000001 -0.000003 0.000002 3.889430 8.333842 -7.261187 -42.000233 -3.203195 27.938517 -12.789884 47.794928 2.424342 36.354187 22.263324 -26.066807 -9.151834 -3.932297 17.229571 -8.906347 -3.563896 -6.479046 0.000000 0.000002 0.000003 -2.009630 8.213985 -5.048297 -1.625964 -0.980985 33.676524 -0.000000 -0.000001 -0.000000 -3.382730 -5.223071 -15.049902 -1.435144 -1.099669 25.006605 -0.000000 -0.000000 0.000000 -8.188919 -12.219978 -0.270444 2.472537 4.601783 34.000422 -0.000000 0.000001 -0.000001 -14.081792 -14.805120 6.122710 3.294880 9.546737 30.562306 0.000001 0.000003 -0.000000 0.000001 0.000003 0.000001 0.000002 0.000000 0.000001 0.000001 0.000003 0.000000 0.000001 0.000000 -0.000001 0.000001 0.000001 -0.000001 0.000001 0.000000 -0.000001 0.000001 0.000002 -0.000001 -0.000001 0.000003 -0.000001 -0.000001 0.000003 -0.000001 -0.000001 0.000003 -0.000001 -0.000001 0.000003 -0.000001 -0.000001 0.000003 -0.000001 -0.000001 0.000003 -0.000001 -0.000001 0.000003 -0.000001 -0.000001 -0.000002 0.000000 0.000000 0.000001 -0.000000 
-0.675575 72.924927 -47.177784 23.776268 -75.414646 22.045549 -0.000000 -0.000000 -0.000000 -47.484312 -11.323917 29.864831 80.666105 9.403653 0.360043 -22.896722 7.905154 -33.417370 0.000000 0.000000 -0.000000 0.000000 -0.000002 -0.000000 -59.751458 2.199487 -17.402323 87.159764 20.587703 -4.535658 -33.397675 -2.170437 5.541689 -0.000000 -0.000001 0.000000 -0.000000 -0.000002 0.000001 4.550713 9.210144 -3.116131 9.805974 18.007206 -7.165118 9.805972 18.007230 -7.165124 0.393328 0.894648 0.269449 0.393344 0.894649 0.269442 0.000001 -0.000002 0.000000 0.393335 0.894660 0.269444 0.393402 0.894660 0.269441 -0.000001 -0.000001 -0.000000 0.000001 -0.000002 -0.000000 4.342712 -4.985471 -0.341766 -66.423275 -29.193219 -56.580502 44.445468 -70.007438 43.935800 31.304478 -11.014992 4.016411 -19.044908 6.177781 0.482002 19.312365 28.165043 -8.456579 0.000002 0.000006 -0.000000 9.294375 -0.270996 -31.038463 -3.248157 0.907467 -22.504486 -0.000001 0.000003 0.000002 -3.842861 6.742086 -20.716314 -1.447311 -1.155409 -22.951720 0.000000 -0.000001 -0.000001 -8.079864 9.523670 -29.657955 1.892677 -4.850341 -27.940883 -0.000001 0.000001 -0.000003 -7.803381 10.746639 -42.756564 1.095365 -7.784637 -41.809213 -0.000000 0.000000 -0.000003 0.000002 -0.000001 0.000002 0.000002 -0.000001 0.000002 0.000001 -0.000001 0.000002 -0.000001 0.000002 -0.000001 -0.000001 0.000002 -0.000001 -0.000001 0.000002 -0.000001 -0.000002 0.000001 -0.000002 3.540738 8.113210 -5.624214 -39.216084 -4.972972 28.094469 -12.221753 46.311480 3.788308 34.197685 22.070044 -22.498756 -9.063450 -3.936854 17.210064 -8.695223 -3.775180 -6.551198 0.000002 -0.000002 -0.000001 -2.062655 8.026973 -3.931494 -1.632739 -0.857246 34.503073 -0.000001 -0.000002 -0.000000 -3.225482 -5.131293 -13.367339 -1.402182 -0.904883 26.301233 -0.000000 -0.000001 -0.000000 -7.680283 -12.230774 1.506801 2.246280 4.705201 35.492607 -0.000001 -0.000001 -0.000002 -13.333124 -14.852467 8.352893 3.002301 9.636760 32.213904 0.000000 0.000003 -0.000001 0.000002 0.000000 0.000001 -0.000000 0.000000 0.000000 0.000002 -0.000000 0.000001 -0.000002 -0.000001 0.000002 -0.000002 0.000000 -0.000000 -0.000002 -0.000001 0.000002 -0.000002 -0.000000 -0.000000 0.000002 -0.000002 0.000002 0.000002 -0.000002 0.000002 0.000002 -0.000002 0.000002 0.000002 -0.000002 0.000002 0.000002 -0.000002 0.000002 0.000002 -0.000002 0.000002 0.000002 -0.000002 0.000002 -0.000000 0.000002 0.000000 -0.000000 -0.000000 -0.000000 
-0.261089 72.317520 -47.533592 29.761596 -73.880654 27.624179 -0.000001 -0.000001 0.000000 -51.352251 -12.209586 30.307482 81.350230 8.313602 0.110110 -22.169315 7.404173 -32.807956 0.000000 0.000000 -0.000000 -0.000002 0.000000 -0.000001 -62.530744 2.651721 -17.068277 87.937190 19.649609 -4.127129 -33.473022 -2.304941 5.820664 0.000000 -0.000001 0.000000 0.000002 -0.000002 0.000000 4.657273 9.047281 -3.179322 10.016251 17.679736 -7.291494 10.016237 17.679757 -7.291500 0.242815 1.290105 0.337314 0.242811 1.290112 0.337318 -0.000002 -0.000001 -0.000000 0.242888 1.290113 0.337314 0.242734 1.290108 0.337315 0.000002 0.000000 -0.000000 -0.000002 -0.000001 0.000000 4.231865 -4.936955 -0.833280 -58.521389 -25.699400 -53.642653 41.104516 -69.046485 41.375821 30.954168 -7.949367 3.669307 -18.695737 5.341792 1.222983 19.851234 28.173186 -9.184998 0.000000 -0.000000 -0.000003 9.121590 -1.933212 -33.603342 -3.251635 0.762716 -23.660873 -0.000001 -0.000001 -0.000003 -3.890810 6.785528 -21.931763 -1.491382 -1.304128 -24.365626 0.000001 0.000003 -0.000003 -7.771784 10.307832 -30.766468 1.809469 -4.872220 -28.906846 -0.000001 -0.000001 0.000002 -7.772681 11.953602 -44.457749 1.028324 -7.779533 -43.355319 -0.000002 0.000000 -0.000003 0.000002 -0.000000 -0.000002 0.000002 -0.000000 -0.000002 0.000001 -0.000000 -0.000002 -0.000003 0.000001 -0.000002 -0.000003 -0.000000 -0.000003 -0.000003 0.000001 -0.000002 -0.000003 0.000002 -0.000002 3.219527 7.942034 -3.888784 -35.652358 -7.358676 27.766293 -11.633918 45.311434 5.140173 31.216878 21.636463 -18.441007 -8.993642 -3.944175 17.135324 -8.463741 -3.999590 -6.613707 0.000000 -0.000006 0.000001 -2.142763 7.757688 -2.456753 -1.629386 -0.726814 35.289596 -0.000000 -0.000002 -0.000002 -3.043224 -5.002367 -11.157958 -1.372909 -0.672037 27.878643 -0.000001 0.000000 0.000001 -7.078828 -12.195035 3.756911 1.980150 4.816501 37.201066 -0.000001 0.000001 -0.000001 -12.440642 -14.869018 10.893923 2.656904 9.731706 34.190042 0.000001 0.000001 0.000002 0.000000 0.000002 -0.000000 0.000002 -0.000001 0.000000 0.000000 0.000001 -0.000000 0.000001 0.000002 -0.000001 0.000001 0.000002 0.000000 0.000001 0.000002 -0.000001 0.000001 0.000003 0.000000 -0.000000 0.000001 -0.000001 -0.000000 0.000001 -0.000001 -0.000000 0.000001 -0.000001 -0.000000 0.000001 -0.000001 -0.000000 0.000001 -0.000001 -0.000000 0.000001 -0.000001 -0.000000 0.000001 -0.000001 -0.000000 0.000001 -0.000000 -0.000001 -0.000001 0.000000 
0.168915 71.857918 -47.825882 34.310998 -72.224196 31.955064 0.000001 -0.000000 -0.000000 -54.962327 -12.826736 30.256375 81.622912 7.530249 -0.087376 -21.277007 6.918167 -32.110625 0.000000 -0.000000 0.000000 -0.000003 0.000000 -0.000002 -65.047416 3.278908 -16.853333 88.499526 18.632440 -3.832997 -33.463033 -2.509135 6.309385 0.000000 0.000000 0.000000 -0.000001 -0.000001 0.000001 4.770337 8.890901 -3.216303 10.238197 17.364528 -7.376333 10.238195 17.364545 -7.376345 0.096390 1.678231 0.394507 0.096393 1.678236 0.394499 -0.000000 -0.000002 -0.000000 0.096398 1.678219 0.394504 0.096391 1.678256 0.394495 -0.000000 0.000000 -0.000001 -0.000000 -0.000002 0.000001 4.107735 -4.811333 -1.179669 -50.713034 -21.636935 -51.563174 36.144487 -68.037611 36.990215 29.863718 -5.250579 4.082333 -18.282721 4.747873 1.912504 19.476257 27.304077 -9.321532 0.000001 -0.000001 -0.000001 8.191147 -4.289874 -35.718105 -3.258100 0.613772 -24.845308 0.000000 0.000001 0.000000 -3.936831 6.766878 -23.953757 -1.539533 -1.453386 -25.791196 0.000002 0.000001 -0.000001 -7.141137 11.712615 -33.013060 1.716901 -4.907869 -30.228730 0.000002 -0.000002 0.000001 -7.043597 14.522698 -47.782600 0.961475 -7.775761 -45.186144 -0.000000 -0.000002 0.000001 0.000003 0.000002 0.000000 0.000003 0.000002 0.000000 0.000003 0.000002 0.000000 0.000002 -0.000003 -0.000001 0.000002 -0.000004 -0.000002 0.000002 -0.000003 -0.000001 0.000001 -0.000003 -0.000001 2.932182 7.881681 -2.048415 -31.285828 -10.550634 27.298306 -11.071058 45.033343 6.402672 27.469764 20.872030 -13.854842 -8.937091 -3.951751 17.012512 -8.206388 -4.247605 -6.666310 -0.000002 -0.000003 0.000001 -2.237302 7.418795 -0.626215 -1.620781 -0.585843 36.089637 -0.000001 0.000004 -0.000000 -2.842420 -4.831142 -8.446976 -1.353443 -0.403324 29.723761 -0.000002 0.000000 -0.000003 -6.401982 -12.092152 6.441908 1.678101 4.929174 39.109144 -0.000001 0.000003 -0.000002 -11.428149 -14.820805 13.730209 2.265938 9.821401 36.452460 0.000000 -0.000000 -0.000000 0.000000 0.000001 -0.000000 0.000000 -0.000002 -0.000000 0.000000 0.000001 0.000000 -0.000001 0.000000 -0.000001 -0.000001 0.000001 -0.000002 -0.000001 0.000000 -0.000001 -0.000000 0.000001 -0.000002 0.000000 -0.000001 0.000001 0.000000 -0.000001 0.000001 0.000000 -0.000001 0.000001 0.000000 -0.000001 0.000001 0.000000 -0.000001 0.000001 0.000000 -0.000001 0.000001 0.000000 -0.000001 0.000001 0.000001 -0.000002 -0.000000 0.000001 -0.000000 -0.000000 
